# xmcd
#
# Track frame offsets:
#	150
#	15046
#	28620
#	44902
#	61775
#	82435
#	93547
#	104583
#	116153
#	131887
#	143897
#	157437
#	169023
#	188858
#
# Disc length: 2748 seconds
#
# Revision: 3
# Processed by: cddbd v1.5.2PL0 Copyright (c) Steve Scherf et al.
# Submitted via: EasyCDDAExtractor 16.0.6.1
#
DISCID=cf0aba0e
DTITLE=Jair Rodrigues - Em Branco E Preto
DYEAR=2008
DGENRE=Samba
TTITLE0=Jair Rodrigues - Orquestra Popular
TTITLE1=Jair Rodrigues - Toda Maria
TTITLE2=Jair Rodrigues - Como Tem Ladrão
TTITLE3=Jair Rodrigues - Madrugada Sorrindo De Novo
TTITLE4=Jair Rodrigues - Migração
TTITLE5=Jair Rodrigues - Vida Em Sonho
TTITLE6=Jair Rodrigues - Não Deixe A Tristeza Pegar No Seu Pé
TTITLE7=Jair Rodrigues - Caridade
TTITLE8=Jair Rodrigues e Germano Mathias - Baiano Capoeira
TTITLE9=Jair Rodrigues - E Lá Se Vão Meus Anéis
TTITLE10=Jair Rodrigues - Depois Chorei
TTITLE11=Jair Rodrigues - Quem Falou?
TTITLE12=Jair Rodrigues - Eu Vou Só
TTITLE13=Jair Rodrigues - Medley Samba De Enredo: Marquesa De Santos - Indepen
TTITLE13=dência Ou Morte -Exaltação A Trindade
EXTD=
EXTT0=
EXTT1=
EXTT2=
EXTT3=
EXTT4=
EXTT5=
EXTT6=
EXTT7=
EXTT8=
EXTT9=
EXTT10=
EXTT11=
EXTT12=
EXTT13=
PLAYORDER=
